<?xml version="1.0" standalone="no"?><!DOCTYPE svg PUBLIC "-//W3C//DTD SVG 1.1//EN" "http://www.w3.org/Graphics/SVG/1.1/DTD/svg11.dtd"><svg t="1756796195498" class="icon" viewBox="0 0 1092 1024" version="1.1" xmlns="http://www.w3.org/2000/svg" p-id="3632" xmlns:xlink="http://www.w3.org/1999/xlink" width="213.28125" height="200"><path d="M282.112 0h528.042667a136.533333 136.533333 0 0 1 117.077333 66.286933L1072.810667 308.906667a136.533333 136.533333 0 0 1 19.456 70.2464V887.466667a136.533333 136.533333 0 0 1-136.533334 136.533333H136.533333a136.533333 136.533333 0 0 1-136.533333-136.533333V379.153067A136.533333 136.533333 0 0 1 19.456 308.906667l145.578667-242.619734A136.533333 136.533333 0 0 1 282.112 0zM614.4 682.666667h136.533333l-204.8-204.8-204.8 204.8h136.533334v170.666666h136.533333v-170.666666zM292.864 102.4a34.133333 34.133333 0 0 0-29.627733 17.2032l-97.518934 170.666667A34.133333 34.133333 0 0 0 195.345067 341.333333h701.576533a34.133333 34.133333 0 0 0 29.627733-51.063466l-97.518933-170.666667A34.133333 34.133333 0 0 0 799.402667 102.4H292.864z" fill="#454ce7" p-id="3633" data-spm-anchor-id="a313x.search_index.0.i17.af3c3a81XV3Kp6" class="selected"></path></svg>